<?xml version="1.0" encoding="utf-8"?>
<!-- Generator: Adobe Illustrator 18.1.0, SVG Export Plug-In . SVG Version: 6.00 Build 0)  -->
<svg version="1.1" id="Ebene_1" xmlns="http://www.w3.org/2000/svg" xmlns:xlink="http://www.w3.org/1999/xlink" x="0px" y="0px"
	 viewBox="0 0 165.8 56.3" enable-background="new 0 0 165.8 56.3" xml:space="preserve">
<g>
	<polygon fill="#00528C" points="16.4,33.3 10.2,22.2 16.1,14.8 11.1,14.8 4.7,23.2 4.7,14.8 0,14.8 0,33.3 4.7,33.3 4.7,27.9 
		6.9,25.4 11.2,33.3 16.4,33.3 	"/>
	<path fill="#00528C" d="M30.5,33.3v-9.5c0-3.1-2.1-4.5-4.5-4.5c-1.7,0-3.1,0.7-4.2,2h-0.1v-1.7h-4.2v13.7h4.3v-7.7
		c0-1.9,0.9-2.8,2.2-2.8c1.6,0,2.1,1.2,2.1,2.6v8H30.5L30.5,33.3z"/>
	<path fill="#00528C" d="M45.1,33.3c-0.1-0.3-0.3-2-0.3-3v-6.3c0-3.5-3-4.7-6.2-4.7c-3.1,0-6.1,1.4-6.1,4.4v0.5h3.8v-0.4
		c0-0.7,0.7-1.4,2-1.4c1.4,0,2.1,0.6,2.1,1.7v1.1h-2.4c-2.8,0-6.1,1.2-6.1,4.5c0,2.6,1.9,4,4.5,4c1.4,0,3-0.3,4.1-1.8h0.1
		c0,0.1,0.1,1.4,0.1,1.5H45.1L45.1,33.3L45.1,33.3z M40.5,27.6l0,0.8c-0.1,1.3-0.7,2.2-2.3,2.2c-1.3,0-1.9-0.6-1.9-1.5
		c0-1.1,0.9-1.5,2.2-1.5H40.5L40.5,27.6z"/>
	<path fill="#00528C" d="M59.5,33.3V19.6h-4.3v7.7c0,1.9-0.9,2.8-2.2,2.8c-1.6,0-2.1-1.2-2.1-2.6v-8h-4.3v9.5c0,3.1,2.1,4.5,4.5,4.5
		c1.7,0,3.2-0.7,4.1-2.2h0.1v1.9H59.5L59.5,33.3z"/>
	<path fill="#00528C" d="M73.5,28.9c0-1.7-1.1-3-3-3.7c-0.2-0.1-1.6-0.5-1.9-0.5c-0.2-0.1-1.6-0.2-1.8-0.3c-0.8-0.2-1.5-0.3-1.5-0.9
		c0-0.8,0.7-1.1,1.9-1.1c1.1,0,2.2,0.4,3,1.3l2.7-2.1c-1.4-1.6-3.1-2.2-5.9-2.2c-3.4,0-5.8,1.8-5.8,4.7c0,1.7,1,2.8,2.7,3.4
		c0.3,0.1,1.9,0.6,2.2,0.7c0.1,0,1,0.1,1.1,0.2c1.1,0.2,1.8,0.4,1.8,1.2c0,0.9-1.1,1.2-2.1,1.2c-1.5,0-3-0.7-3.8-1.7l-2.6,2.2
		c1.6,2,4,2.5,6.5,2.5C70.1,33.6,73.5,32.3,73.5,28.9L73.5,28.9L73.5,28.9z"/>
	<polygon fill="#00528C" points="90.1,18.5 90.1,14.8 74.8,14.8 74.8,18.5 80.1,18.5 80.1,33.3 84.8,33.3 84.8,18.5 90.1,18.5 	"/>
	<path fill="#00528C" d="M100.7,33.3c-0.1-0.3-0.3-2-0.3-3v-6.3c0-3.5-3-4.7-6.2-4.7c-3.1,0-6.1,1.4-6.1,4.4v0.5H92v-0.4
		c0-0.7,0.7-1.4,2-1.4c1.4,0,2.1,0.6,2.1,1.7v1.1h-2.4c-2.8,0-6.1,1.2-6.1,4.5c0,2.6,1.9,4,4.5,4c1.4,0,3-0.3,4.1-1.8h0.1
		c0,0.1,0.1,1.4,0.1,1.5H100.7L100.7,33.3L100.7,33.3z M96.2,27.6l0,0.8c-0.1,1.3-0.7,2.2-2.3,2.2c-1.3,0-1.9-0.6-1.9-1.5
		c0-1.1,0.9-1.5,2.2-1.5H96.2L96.2,27.6z"/>
	<path fill="#00528C" d="M116,28.6v-4.1c0-3.2-2-5.1-5.1-5.1c-1.3,0-2.8,0.6-3.8,1.9h0v-6.5h-4.3v18.6h4.2v-1.3h0.1
		c0.8,1,2.1,1.6,3.4,1.6C113.4,33.7,116,31.8,116,28.6L116,28.6L116,28.6z M111.6,28.2c0,1.6-1.1,2.3-2.2,2.3
		c-1.1,0-2.3-0.7-2.3-2.2v-3.2c0-1.9,1.2-2.5,2.3-2.5c1.2,0,2.2,0.8,2.2,2.2V28.2L111.6,28.2L111.6,28.2z"/>
	<path fill="#00528C" d="M131,28.6v-4.1c0-3.2-2-5.1-5.1-5.1c-1.3,0-2.8,0.6-3.8,1.9h0v-6.5h-4.3v18.6h4.2v-1.3h0.1
		c0.8,1,2.1,1.6,3.4,1.6C128.5,33.7,131,31.8,131,28.6L131,28.6L131,28.6z M126.7,28.2c0,1.6-1.1,2.3-2.2,2.3
		c-1.1,0-2.3-0.7-2.3-2.2v-3.2c0-1.9,1.2-2.5,2.3-2.5c1.2,0,2.2,0.8,2.2,2.2V28.2L126.7,28.2L126.7,28.2z"/>
	<path fill="#00528C" d="M145.5,27.9v-3.4c0-3.4-3.1-5.1-6.3-5.1c-3.3,0-6.6,1.9-6.6,6v2.7c0,3.9,3.5,5.6,6.8,5.6
		c2.6,0,4-0.5,5.3-1.2l-1.3-3.1c-0.6,0.3-2.1,0.9-3.4,0.9c-1.4,0-3.1-0.7-3.1-2.1v-0.3H145.5L145.5,27.9z M141.4,25.3H137v-0.5
		c0-1.5,1-2.2,2.2-2.2c1.1,0,2.1,0.6,2.1,2V25.3L141.4,25.3z"/>
	<path fill="#00528C" d="M157.1,23.2v-3.7c-0.4-0.1-0.8-0.1-1.1-0.1c-0.5,0-1.2,0.1-1.6,0.2c-1.2,0.4-2.2,1.3-2.8,2.2h-0.1v-2.3
		h-4.2v13.7h4.3v-7.1c0-2.2,1.5-3.1,3.1-3.1C154.9,23.1,156.6,23.2,157.1,23.2L157.1,23.2L157.1,23.2z"/>
	<path fill="#00528C" d="M165.8,22.9v-3.2h-2.9v-3.9h-4.3v3.9l0,3.2v6.9c0,2.9,2,3.7,4.1,3.7c0.8,0,2.1-0.2,3-0.4v-3.3
		c-0.2,0-0.8,0.1-1.2,0.1c-1.3,0-1.6-0.4-1.6-1.3v-5.8H165.8L165.8,22.9z"/>
	<path fill="#00528C" d="M83.8,0.6c29.7-0.2,55.3,7.3,62.3,9.6C122.1,2.5,86.8,3,83.9,3h-0.1c-3.4,0-37.9-0.3-62.3,7.1
		C28.6,7.9,54.1,0.4,83.8,0.6L83.8,0.6L83.8,0.6z"/>
	
		<path fill="none" stroke="#00528C" stroke-width="1.1702" stroke-linecap="round" stroke-linejoin="round" stroke-miterlimit="3.8637" d="
		M83.8,0.6c29.7-0.2,55.3,7.3,62.3,9.6C122.1,2.5,86.8,3,83.9,3h-0.1c-3.4,0-37.9-0.3-62.3,7.1C28.6,7.9,54.1,0.4,83.8,0.6L83.8,0.6
		L83.8,0.6z"/>
	<polygon fill="#0091D3" points="53.4,42.4 52.2,42.4 49.9,51.4 49.9,51.4 47.6,42.4 46.4,42.4 44.1,51.4 44,51.4 41.8,42.4 
		40.6,42.4 43.4,53.4 44.6,53.4 47,44.4 47,44.4 49.3,53.4 50.5,53.4 53.4,42.4 	"/>
	<path fill="#0091D3" d="M56.1,44v-1.7H55V44H56.1L56.1,44z M56.1,53.3v-7.7H55v7.7H56.1L56.1,53.3z"/>
	<path fill="#0091D3" d="M62.8,46.7v-1.1c-0.2,0-0.5-0.1-0.7-0.1c-1.1,0-1.9,0.5-2.5,1.5h0v-1.4h-1.2v7.7h1.2V49
		c0-1.2,0.6-2,1.4-2.3c0.2-0.1,0.6-0.1,0.9-0.1C62,46.6,62.6,46.6,62.8,46.7L62.8,46.7z"/>
	<path fill="#0091D3" d="M74.1,50.7v-2.6c0-1.6-1.1-2.6-2.7-2.6c-0.9,0-1.7,0.6-2.2,1.3h0v-4.4h-1.2v10.9h1.1v-0.8h0
		c0.4,0.6,1.2,1,2.1,1C72.6,53.5,74.1,52.6,74.1,50.7L74.1,50.7z M72.9,50.7c0,1.2-0.9,1.8-1.8,1.8c-1,0-2-0.7-2-2v-2
		c0-1.2,1.1-2.1,2-2.1c1.2,0,1.7,0.8,1.7,1.7V50.7L72.9,50.7z"/>
	<path fill="#0091D3" d="M81.9,51.9L81,51.4c-0.4,0.6-1.1,1-1.8,1c-1.5,0-2.3-0.9-2.3-2.1v-0.5h5v-1.3c0-2-1.2-3.1-3-3.1
		c-1.8,0-3.2,1.1-3.2,3.2v1.7c0,2.1,1.5,3.1,3.4,3.1C80.2,53.5,81.2,53,81.9,51.9L81.9,51.9z M80.7,48.9h-3.8v-0.5
		c0-1.1,0.7-1.9,2-1.9c1.4,0,1.8,1,1.8,2V48.9L80.7,48.9z"/>
	<polygon fill="#0091D3" points="94.2,45.6 93.1,45.6 91.2,51.8 91.1,51.8 89.3,45.6 88,45.6 86.2,51.8 86.1,51.8 84.3,45.6 
		83.1,45.6 85.5,53.3 86.7,53.3 88.6,47 88.7,47 90.6,53.3 91.8,53.3 94.2,45.6 	"/>
	<path fill="#0091D3" d="M101.6,51.9l-0.9-0.5c-0.4,0.6-1.1,1-1.8,1c-1.5,0-2.3-0.9-2.3-2.1v-0.5h5v-1.3c0-2-1.2-3.1-3-3.1
		c-1.8,0-3.2,1.1-3.2,3.2v1.7c0,2.1,1.5,3.1,3.4,3.1C99.9,53.5,101,53,101.6,51.9L101.6,51.9z M100.5,48.9h-3.8v-0.5
		c0-1.1,0.7-1.9,2-1.9c1.4,0,1.8,1,1.8,2V48.9L100.5,48.9z"/>
	<path fill="#0091D3" d="M109.3,53.3v-7.7h-1.1v0.8h0c-0.4-0.6-1.3-1-2-1c-1.5,0-2.9,0.9-2.9,2.8v2.3c0,1.6,1,2.6,2.7,2.6
		c0.9,0,1.7-0.5,2.2-1.2v1.5c0,0.9-0.7,1.9-1.9,1.9c-0.8,0-1.5-0.4-2-1l-1,0.6c0.6,1,1.8,1.4,2.9,1.4
		C108.1,56.3,109.3,55.1,109.3,53.3L109.3,53.3L109.3,53.3z M108.1,50.3c0,1.2-1,2-2,2c-1.2,0-1.7-0.8-1.7-1.7v-2.3
		c0-1.2,0.9-1.8,1.8-1.8c1,0,2,0.7,2,1.9L108.1,50.3L108.1,50.3z"/>
	<path fill="#0091D3" d="M117.4,51.9l-0.9-0.5c-0.4,0.6-1.1,1-1.8,1c-1.5,0-2.3-0.9-2.3-2.1v-0.5h5v-1.3c0-2-1.2-3.1-3-3.1
		c-1.8,0-3.2,1.1-3.2,3.2v1.7c0,2.1,1.5,3.1,3.4,3.1C115.7,53.5,116.7,53,117.4,51.9L117.4,51.9z M116.2,48.9h-3.8v-0.5
		c0-1.1,0.7-1.9,2-1.9c1.4,0,1.8,1,1.8,2V48.9L116.2,48.9z"/>
	<path fill="#0091D3" d="M125.2,53.3v-5.4c0-1.3-0.8-2.5-2.4-2.5c-1.1,0-1.8,0.5-2.4,1.4h0v-1.2h-1.1v7.7h1.2v-4.5
		c0-1.4,1-2.3,2.1-2.3c0.9,0,1.6,0.6,1.6,1.9v5H125.2L125.2,53.3z"/>
</g>
</svg>
